<mxfile host="app.diagrams.net" modified="2022-04-26T15:01:42.187Z" agent="5.0 (Windows NT 10.0; Win64; x64) AppleWebKit/537.36 (KHTML, like Gecko) Chrome/100.0.4896.127 Safari/537.36" etag="AJqjKr2O17lZN5DrDItA" version="17.4.6" type="github">
  <diagram id="29ODBgfTGOtjrFLD_RwF" name="Page-1">
    <mxGraphModel dx="1791" dy="500" grid="1" gridSize="10" guides="1" tooltips="1" connect="1" arrows="1" fold="1" page="1" pageScale="1" pageWidth="827" pageHeight="1169" math="0" shadow="0">
      <root>
        <mxCell id="0" />
        <mxCell id="1" parent="0" />
        <mxCell id="-WZs5T-P6RfxNg0FdXoh-1" value="Você será responsável por escolher qual técnica irá atender os seguintes requisitos:&#xa;&#xa;Se a data do evento for posterior à data atual, permitir o evento; senão, alertar que o cadastro não será permitido por data inválida.&#xa;Se o participante for maior de 18 anos, permitir o cadastro; senão, alertar que o cadastro não é permitido pela idade.&#xa;Listar participantes e palestrantes por evento.&#xa;Enquanto a quantidade de participantes for inferior a 100, permitir cadastro; senão, alertar que o cadastro não será permitido por ter excedido o limite.&#xa;Criar fluxograma com todos os requisitos que devem ser atendidos pelo sistema." style="text;whiteSpace=wrap;html=1;" parent="1" vertex="1">
          <mxGeometry x="-630" y="540" width="550" height="160" as="geometry" />
        </mxCell>
        <mxCell id="-WZs5T-P6RfxNg0FdXoh-18" value="" style="edgeStyle=orthogonalEdgeStyle;rounded=0;orthogonalLoop=1;jettySize=auto;html=1;" parent="1" source="-WZs5T-P6RfxNg0FdXoh-2" target="-WZs5T-P6RfxNg0FdXoh-17" edge="1">
          <mxGeometry relative="1" as="geometry" />
        </mxCell>
        <mxCell id="-WZs5T-P6RfxNg0FdXoh-2" value="Início&lt;br&gt;Sistema de cadastros para eventos" style="ellipse;whiteSpace=wrap;html=1;" parent="1" vertex="1">
          <mxGeometry x="400" y="240" width="120" height="80" as="geometry" />
        </mxCell>
        <mxCell id="-WZs5T-P6RfxNg0FdXoh-19" value="" style="edgeStyle=orthogonalEdgeStyle;rounded=0;orthogonalLoop=1;jettySize=auto;html=1;" parent="1" source="-WZs5T-P6RfxNg0FdXoh-17" edge="1">
          <mxGeometry relative="1" as="geometry">
            <mxPoint x="600" y="410" as="targetPoint" />
          </mxGeometry>
        </mxCell>
        <mxCell id="-WZs5T-P6RfxNg0FdXoh-20" value="" style="edgeStyle=orthogonalEdgeStyle;rounded=0;orthogonalLoop=1;jettySize=auto;html=1;" parent="1" source="-WZs5T-P6RfxNg0FdXoh-17" edge="1">
          <mxGeometry relative="1" as="geometry">
            <mxPoint x="310" y="410" as="targetPoint" />
          </mxGeometry>
        </mxCell>
        <mxCell id="-WZs5T-P6RfxNg0FdXoh-17" value="&lt;span&gt;Você deseja cadastrar um evento?&lt;/span&gt;" style="strokeWidth=1;html=1;shape=mxgraph.flowchart.decision;whiteSpace=wrap;rounded=0;sketch=0;" parent="1" vertex="1">
          <mxGeometry x="370" y="350" width="180" height="120" as="geometry" />
        </mxCell>
        <mxCell id="-WZs5T-P6RfxNg0FdXoh-22" value="Não" style="text;html=1;align=center;verticalAlign=middle;resizable=0;points=[];autosize=1;strokeColor=none;fillColor=none;" parent="1" vertex="1">
          <mxGeometry x="550" y="390" width="40" height="20" as="geometry" />
        </mxCell>
        <mxCell id="-WZs5T-P6RfxNg0FdXoh-23" value="Sim" style="text;html=1;align=center;verticalAlign=middle;resizable=0;points=[];autosize=1;strokeColor=none;fillColor=none;" parent="1" vertex="1">
          <mxGeometry x="330" y="390" width="40" height="20" as="geometry" />
        </mxCell>
        <mxCell id="-WZs5T-P6RfxNg0FdXoh-60" style="edgeStyle=orthogonalEdgeStyle;rounded=0;orthogonalLoop=1;jettySize=auto;html=1;entryX=0.5;entryY=0;entryDx=0;entryDy=0;" parent="1" source="-WZs5T-P6RfxNg0FdXoh-24" target="-WZs5T-P6RfxNg0FdXoh-26" edge="1">
          <mxGeometry relative="1" as="geometry" />
        </mxCell>
        <mxCell id="-WZs5T-P6RfxNg0FdXoh-24" value="Qual a data do evento:" style="shape=display;whiteSpace=wrap;html=1;size=0.1;" parent="1" vertex="1">
          <mxGeometry x="170" y="380" width="140" height="60" as="geometry" />
        </mxCell>
        <mxCell id="-WZs5T-P6RfxNg0FdXoh-61" style="edgeStyle=orthogonalEdgeStyle;rounded=0;orthogonalLoop=1;jettySize=auto;html=1;" parent="1" source="-WZs5T-P6RfxNg0FdXoh-26" edge="1">
          <mxGeometry relative="1" as="geometry">
            <mxPoint x="240" y="550" as="targetPoint" />
          </mxGeometry>
        </mxCell>
        <mxCell id="-WZs5T-P6RfxNg0FdXoh-26" value="data" style="html=1;strokeWidth=1;shape=manualInput;whiteSpace=wrap;rounded=0;size=13;arcSize=11;sketch=0;" parent="1" vertex="1">
          <mxGeometry x="190" y="460" width="100" height="60" as="geometry" />
        </mxCell>
        <mxCell id="-WZs5T-P6RfxNg0FdXoh-56" style="edgeStyle=orthogonalEdgeStyle;rounded=0;orthogonalLoop=1;jettySize=auto;html=1;exitX=0.5;exitY=1;exitDx=0;exitDy=0;entryX=0.493;entryY=-0.033;entryDx=0;entryDy=0;entryPerimeter=0;" parent="1" source="-WZs5T-P6RfxNg0FdXoh-27" target="-WZs5T-P6RfxNg0FdXoh-31" edge="1">
          <mxGeometry relative="1" as="geometry" />
        </mxCell>
        <mxCell id="-WZs5T-P6RfxNg0FdXoh-62" style="edgeStyle=orthogonalEdgeStyle;rounded=0;orthogonalLoop=1;jettySize=auto;html=1;exitX=0;exitY=0.5;exitDx=0;exitDy=0;entryX=1;entryY=0.5;entryDx=0;entryDy=0;entryPerimeter=0;" parent="1" source="-WZs5T-P6RfxNg0FdXoh-27" target="-WZs5T-P6RfxNg0FdXoh-30" edge="1">
          <mxGeometry relative="1" as="geometry" />
        </mxCell>
        <mxCell id="-WZs5T-P6RfxNg0FdXoh-27" value="data &amp;gt; dataHoje" style="rounded=0;whiteSpace=wrap;html=1;sketch=0;strokeWidth=1;" parent="1" vertex="1">
          <mxGeometry x="180" y="555" width="120" height="60" as="geometry" />
        </mxCell>
        <mxCell id="-WZs5T-P6RfxNg0FdXoh-28" value="Sim" style="text;html=1;align=center;verticalAlign=middle;resizable=0;points=[];autosize=1;strokeColor=none;fillColor=none;" parent="1" vertex="1">
          <mxGeometry x="180" y="615" width="40" height="20" as="geometry" />
        </mxCell>
        <mxCell id="-WZs5T-P6RfxNg0FdXoh-29" value="Não" style="text;html=1;align=center;verticalAlign=middle;resizable=0;points=[];autosize=1;strokeColor=none;fillColor=none;" parent="1" vertex="1">
          <mxGeometry x="140" y="555" width="40" height="20" as="geometry" />
        </mxCell>
        <mxCell id="-WZs5T-P6RfxNg0FdXoh-68" style="edgeStyle=orthogonalEdgeStyle;rounded=0;orthogonalLoop=1;jettySize=auto;html=1;entryX=0;entryY=0.333;entryDx=0;entryDy=0;entryPerimeter=0;" parent="1" source="-WZs5T-P6RfxNg0FdXoh-30" target="-WZs5T-P6RfxNg0FdXoh-24" edge="1">
          <mxGeometry relative="1" as="geometry">
            <Array as="points">
              <mxPoint x="70" y="400" />
            </Array>
          </mxGeometry>
        </mxCell>
        <mxCell id="-WZs5T-P6RfxNg0FdXoh-30" value="Data inválida, não é possível realizar o cadastro" style="shape=display;whiteSpace=wrap;html=1;size=0.1;" parent="1" vertex="1">
          <mxGeometry x="-50" y="555" width="190" height="60" as="geometry" />
        </mxCell>
        <mxCell id="-WZs5T-P6RfxNg0FdXoh-57" style="edgeStyle=orthogonalEdgeStyle;rounded=0;orthogonalLoop=1;jettySize=auto;html=1;exitX=0;exitY=0;exitDx=62;exitDy=60;exitPerimeter=0;entryX=0.5;entryY=0;entryDx=0;entryDy=0;" parent="1" source="-WZs5T-P6RfxNg0FdXoh-31" target="-WZs5T-P6RfxNg0FdXoh-32" edge="1">
          <mxGeometry relative="1" as="geometry" />
        </mxCell>
        <mxCell id="-WZs5T-P6RfxNg0FdXoh-31" value="Nome do evento:" style="shape=display;whiteSpace=wrap;html=1;size=0.1;" parent="1" vertex="1">
          <mxGeometry x="170" y="650" width="140" height="60" as="geometry" />
        </mxCell>
        <mxCell id="-WZs5T-P6RfxNg0FdXoh-54" style="edgeStyle=orthogonalEdgeStyle;rounded=0;orthogonalLoop=1;jettySize=auto;html=1;exitX=0.5;exitY=1;exitDx=0;exitDy=0;entryX=0.493;entryY=-0.05;entryDx=0;entryDy=0;entryPerimeter=0;" parent="1" source="-WZs5T-P6RfxNg0FdXoh-32" target="-WZs5T-P6RfxNg0FdXoh-33" edge="1">
          <mxGeometry relative="1" as="geometry" />
        </mxCell>
        <mxCell id="-WZs5T-P6RfxNg0FdXoh-32" value="nomeEvento" style="html=1;strokeWidth=1;shape=manualInput;whiteSpace=wrap;rounded=0;size=13;arcSize=11;sketch=0;" parent="1" vertex="1">
          <mxGeometry x="190" y="730" width="100" height="60" as="geometry" />
        </mxCell>
        <mxCell id="-WZs5T-P6RfxNg0FdXoh-55" style="edgeStyle=orthogonalEdgeStyle;rounded=0;orthogonalLoop=1;jettySize=auto;html=1;exitX=0;exitY=0;exitDx=62;exitDy=60;exitPerimeter=0;entryX=0.48;entryY=0.117;entryDx=0;entryDy=0;entryPerimeter=0;" parent="1" source="-WZs5T-P6RfxNg0FdXoh-33" target="-WZs5T-P6RfxNg0FdXoh-34" edge="1">
          <mxGeometry relative="1" as="geometry" />
        </mxCell>
        <mxCell id="-WZs5T-P6RfxNg0FdXoh-33" value="Nome do participante:" style="shape=display;whiteSpace=wrap;html=1;size=0.1;" parent="1" vertex="1">
          <mxGeometry x="170" y="820" width="140" height="60" as="geometry" />
        </mxCell>
        <mxCell id="-WZs5T-P6RfxNg0FdXoh-52" style="edgeStyle=orthogonalEdgeStyle;rounded=0;orthogonalLoop=1;jettySize=auto;html=1;exitX=0.5;exitY=1;exitDx=0;exitDy=0;entryX=0.5;entryY=0.033;entryDx=0;entryDy=0;entryPerimeter=0;" parent="1" source="-WZs5T-P6RfxNg0FdXoh-34" target="-WZs5T-P6RfxNg0FdXoh-35" edge="1">
          <mxGeometry relative="1" as="geometry" />
        </mxCell>
        <mxCell id="-WZs5T-P6RfxNg0FdXoh-34" value="nomeParticipante" style="html=1;strokeWidth=1;shape=manualInput;whiteSpace=wrap;rounded=0;size=13;arcSize=11;sketch=0;" parent="1" vertex="1">
          <mxGeometry x="190" y="900" width="100" height="60" as="geometry" />
        </mxCell>
        <mxCell id="-WZs5T-P6RfxNg0FdXoh-53" style="edgeStyle=orthogonalEdgeStyle;rounded=0;orthogonalLoop=1;jettySize=auto;html=1;exitX=0;exitY=0;exitDx=62;exitDy=60;exitPerimeter=0;entryX=0.5;entryY=0.167;entryDx=0;entryDy=0;entryPerimeter=0;" parent="1" source="-WZs5T-P6RfxNg0FdXoh-35" target="-WZs5T-P6RfxNg0FdXoh-36" edge="1">
          <mxGeometry relative="1" as="geometry" />
        </mxCell>
        <mxCell id="-WZs5T-P6RfxNg0FdXoh-35" value="Idade do participante:" style="shape=display;whiteSpace=wrap;html=1;size=0.1;" parent="1" vertex="1">
          <mxGeometry x="170" y="980" width="140" height="60" as="geometry" />
        </mxCell>
        <mxCell id="-WZs5T-P6RfxNg0FdXoh-50" style="edgeStyle=orthogonalEdgeStyle;rounded=0;orthogonalLoop=1;jettySize=auto;html=1;exitX=0.5;exitY=1;exitDx=0;exitDy=0;entryX=0.5;entryY=0;entryDx=0;entryDy=0;" parent="1" source="-WZs5T-P6RfxNg0FdXoh-36" target="-WZs5T-P6RfxNg0FdXoh-37" edge="1">
          <mxGeometry relative="1" as="geometry" />
        </mxCell>
        <mxCell id="-WZs5T-P6RfxNg0FdXoh-36" value="idadeParticipante" style="html=1;strokeWidth=1;shape=manualInput;whiteSpace=wrap;rounded=0;size=13;arcSize=11;sketch=0;" parent="1" vertex="1">
          <mxGeometry x="190" y="1060" width="100" height="60" as="geometry" />
        </mxCell>
        <mxCell id="-WZs5T-P6RfxNg0FdXoh-49" value="" style="edgeStyle=orthogonalEdgeStyle;rounded=0;orthogonalLoop=1;jettySize=auto;html=1;" parent="1" source="-WZs5T-P6RfxNg0FdXoh-37" target="-WZs5T-P6RfxNg0FdXoh-41" edge="1">
          <mxGeometry relative="1" as="geometry" />
        </mxCell>
        <mxCell id="-WZs5T-P6RfxNg0FdXoh-73" style="edgeStyle=orthogonalEdgeStyle;rounded=0;orthogonalLoop=1;jettySize=auto;html=1;entryX=0.5;entryY=0;entryDx=0;entryDy=0;" parent="1" source="-WZs5T-P6RfxNg0FdXoh-37" target="-WZs5T-P6RfxNg0FdXoh-70" edge="1">
          <mxGeometry relative="1" as="geometry" />
        </mxCell>
        <mxCell id="-WZs5T-P6RfxNg0FdXoh-37" value="idadeParticipante &amp;gt;= 18" style="rounded=0;whiteSpace=wrap;html=1;sketch=0;strokeWidth=1;" parent="1" vertex="1">
          <mxGeometry x="180" y="1140" width="120" height="60" as="geometry" />
        </mxCell>
        <mxCell id="-WZs5T-P6RfxNg0FdXoh-38" value="Não" style="text;html=1;align=center;verticalAlign=middle;resizable=0;points=[];autosize=1;strokeColor=none;fillColor=none;" parent="1" vertex="1">
          <mxGeometry x="140" y="1149" width="40" height="20" as="geometry" />
        </mxCell>
        <mxCell id="-WZs5T-P6RfxNg0FdXoh-39" value="Sim" style="text;html=1;align=center;verticalAlign=middle;resizable=0;points=[];autosize=1;strokeColor=none;fillColor=none;" parent="1" vertex="1">
          <mxGeometry x="170" y="1200" width="40" height="20" as="geometry" />
        </mxCell>
        <mxCell id="-WZs5T-P6RfxNg0FdXoh-69" style="edgeStyle=orthogonalEdgeStyle;rounded=0;orthogonalLoop=1;jettySize=auto;html=1;entryX=0;entryY=0.5;entryDx=0;entryDy=0;entryPerimeter=0;" parent="1" source="-WZs5T-P6RfxNg0FdXoh-41" target="-WZs5T-P6RfxNg0FdXoh-33" edge="1">
          <mxGeometry relative="1" as="geometry">
            <Array as="points">
              <mxPoint x="70" y="850" />
            </Array>
          </mxGeometry>
        </mxCell>
        <mxCell id="-WZs5T-P6RfxNg0FdXoh-41" value="Idade inválida, somente é permitido o cadastro de pessoas maiores de 18 anos" style="shape=display;whiteSpace=wrap;html=1;size=0.1;" parent="1" vertex="1">
          <mxGeometry x="-50" y="1140" width="190" height="60" as="geometry" />
        </mxCell>
        <mxCell id="-WZs5T-P6RfxNg0FdXoh-42" value="Sim" style="text;html=1;align=center;verticalAlign=middle;resizable=0;points=[];autosize=1;strokeColor=none;fillColor=none;" parent="1" vertex="1">
          <mxGeometry x="320" y="1240" width="40" height="20" as="geometry" />
        </mxCell>
        <mxCell id="-WZs5T-P6RfxNg0FdXoh-43" value="Não" style="text;html=1;align=center;verticalAlign=middle;resizable=0;points=[];autosize=1;strokeColor=none;fillColor=none;" parent="1" vertex="1">
          <mxGeometry x="180" y="1290" width="40" height="20" as="geometry" />
        </mxCell>
        <mxCell id="-WZs5T-P6RfxNg0FdXoh-67" style="edgeStyle=orthogonalEdgeStyle;rounded=0;orthogonalLoop=1;jettySize=auto;html=1;exitX=0.5;exitY=0;exitDx=0;exitDy=0;entryX=1;entryY=0.5;entryDx=0;entryDy=0;entryPerimeter=0;" parent="1" source="-WZs5T-P6RfxNg0FdXoh-63" target="-WZs5T-P6RfxNg0FdXoh-33" edge="1">
          <mxGeometry relative="1" as="geometry" />
        </mxCell>
        <mxCell id="tCCi4dPBxki_MjiUghov-8" style="edgeStyle=orthogonalEdgeStyle;rounded=0;orthogonalLoop=1;jettySize=auto;html=1;entryX=0.524;entryY=-0.056;entryDx=0;entryDy=0;entryPerimeter=0;" edge="1" parent="1" source="-WZs5T-P6RfxNg0FdXoh-63" target="-WZs5T-P6RfxNg0FdXoh-77">
          <mxGeometry relative="1" as="geometry" />
        </mxCell>
        <mxCell id="-WZs5T-P6RfxNg0FdXoh-63" value="quantidadeParticipantes &amp;lt; 100" style="rounded=0;whiteSpace=wrap;html=1;sketch=0;strokeWidth=1;" parent="1" vertex="1">
          <mxGeometry x="370" y="1236" width="140" height="60" as="geometry" />
        </mxCell>
        <mxCell id="-WZs5T-P6RfxNg0FdXoh-65" value="Sim" style="text;html=1;align=center;verticalAlign=middle;resizable=0;points=[];autosize=1;strokeColor=none;fillColor=none;" parent="1" vertex="1">
          <mxGeometry x="400" y="1216" width="40" height="20" as="geometry" />
        </mxCell>
        <mxCell id="-WZs5T-P6RfxNg0FdXoh-66" value="Não" style="text;html=1;align=center;verticalAlign=middle;resizable=0;points=[];autosize=1;strokeColor=none;fillColor=none;" parent="1" vertex="1">
          <mxGeometry x="374" y="1296" width="40" height="20" as="geometry" />
        </mxCell>
        <mxCell id="-WZs5T-P6RfxNg0FdXoh-75" style="edgeStyle=orthogonalEdgeStyle;rounded=0;orthogonalLoop=1;jettySize=auto;html=1;entryX=0;entryY=0.5;entryDx=0;entryDy=0;" parent="1" source="-WZs5T-P6RfxNg0FdXoh-70" target="-WZs5T-P6RfxNg0FdXoh-63" edge="1">
          <mxGeometry relative="1" as="geometry" />
        </mxCell>
        <mxCell id="tCCi4dPBxki_MjiUghov-4" style="edgeStyle=orthogonalEdgeStyle;rounded=0;orthogonalLoop=1;jettySize=auto;html=1;exitX=0.5;exitY=1;exitDx=0;exitDy=0;entryX=0.5;entryY=0;entryDx=0;entryDy=0;" edge="1" parent="1" source="-WZs5T-P6RfxNg0FdXoh-70" target="tCCi4dPBxki_MjiUghov-2">
          <mxGeometry relative="1" as="geometry" />
        </mxCell>
        <mxCell id="-WZs5T-P6RfxNg0FdXoh-70" value="&lt;span&gt;Cadastrar outro participante?&lt;/span&gt;" style="rhombus;whiteSpace=wrap;html=1;rounded=0;sketch=0;strokeWidth=1;" parent="1" vertex="1">
          <mxGeometry x="165" y="1226" width="150" height="80" as="geometry" />
        </mxCell>
        <mxCell id="tCCi4dPBxki_MjiUghov-15" style="edgeStyle=orthogonalEdgeStyle;rounded=0;orthogonalLoop=1;jettySize=auto;html=1;entryX=0.552;entryY=0.011;entryDx=0;entryDy=0;entryPerimeter=0;" edge="1" parent="1" source="-WZs5T-P6RfxNg0FdXoh-77" target="tCCi4dPBxki_MjiUghov-2">
          <mxGeometry relative="1" as="geometry">
            <Array as="points">
              <mxPoint x="252" y="1360" />
            </Array>
          </mxGeometry>
        </mxCell>
        <mxCell id="-WZs5T-P6RfxNg0FdXoh-77" value="Esse evento já possui a quantidade máxima de participantes" style="shape=display;whiteSpace=wrap;html=1;size=0.1;" parent="1" vertex="1">
          <mxGeometry x="340" y="1330" width="190" height="60" as="geometry" />
        </mxCell>
        <mxCell id="tCCi4dPBxki_MjiUghov-13" style="edgeStyle=orthogonalEdgeStyle;rounded=0;orthogonalLoop=1;jettySize=auto;html=1;entryX=0;entryY=0.5;entryDx=0;entryDy=0;" edge="1" parent="1" source="tCCi4dPBxki_MjiUghov-2" target="tCCi4dPBxki_MjiUghov-11">
          <mxGeometry relative="1" as="geometry">
            <Array as="points">
              <mxPoint x="240" y="1560" />
            </Array>
          </mxGeometry>
        </mxCell>
        <mxCell id="tCCi4dPBxki_MjiUghov-2" value="&lt;span&gt;Listar participantes desse evento?&lt;/span&gt;" style="rhombus;whiteSpace=wrap;html=1;rounded=0;sketch=0;strokeWidth=1;" vertex="1" parent="1">
          <mxGeometry x="122.5" y="1380" width="235" height="100" as="geometry" />
        </mxCell>
        <mxCell id="tCCi4dPBxki_MjiUghov-9" value="Não" style="text;html=1;align=center;verticalAlign=middle;resizable=0;points=[];autosize=1;strokeColor=none;fillColor=none;" vertex="1" parent="1">
          <mxGeometry x="190" y="1480" width="40" height="20" as="geometry" />
        </mxCell>
        <mxCell id="tCCi4dPBxki_MjiUghov-10" value="Sim" style="text;html=1;align=center;verticalAlign=middle;resizable=0;points=[];autosize=1;strokeColor=none;fillColor=none;" vertex="1" parent="1">
          <mxGeometry x="345" y="1440" width="40" height="20" as="geometry" />
        </mxCell>
        <mxCell id="tCCi4dPBxki_MjiUghov-11" value="Fim" style="ellipse;whiteSpace=wrap;html=1;" vertex="1" parent="1">
          <mxGeometry x="380" y="1520" width="120" height="80" as="geometry" />
        </mxCell>
      </root>
    </mxGraphModel>
  </diagram>
</mxfile>
